<svg width="400" height="400" fill="none" xmlns="http://www.w3.org/2000/svg">
                    <g clip-path="url(#clip0)">
                        <path
                            d="M235.813 1.29031C236.656 7.80984 238.875 12.5976 241.75 14.0917C243.031 14.7368 246.688 14.7708 248.406 14.1256C249.5 13.6842 249.719 13.6842 250.125 14.1256C250.938 15.0085 250.969 15.7895 250.219 18.1324L249.469 20.4075L250.188 24.3463C252.125 34.6689 252.875 44.4143 251.938 47.2666C251.688 47.9796 251.406 48.5569 251.281 48.5569C250.781 48.5569 243.031 41.3243 240.219 38.2682C236.781 34.4991 236.188 33.3107 233.281 24.8557C231.25 19.0153 231.094 18.6757 230.313 18.6757C229.031 18.6757 227.094 15.7555 226.813 13.3786C226.5 10.764 224.844 7.57217 223.156 6.28183C221.844 5.26315 221.781 5.26315 216.625 5.05942C212.5 4.92361 211.188 4.75381 210.375 4.27844C209.781 3.93887 209.219 3.7691 209.125 3.90494C208.813 4.21054 210.25 9.16809 211.406 11.7148C213.219 15.7555 215.719 18.3022 218.438 18.8116C219.844 19.0832 222.813 18.506 224.813 17.5552L226.344 16.8421L227.031 17.7929C227.438 18.3362 227.875 19.253 228.031 19.8302C228.25 20.6452 228.5 20.8828 229.063 20.8828C229.719 20.8828 230 21.3243 231.188 24.1766C233.469 29.7793 233.031 31.6469 229.563 30.8319C228.188 30.5263 228 30.5603 227.375 31.2394L226.719 31.9864L227.594 31.8167C228.625 31.6469 230.938 32.1902 230.938 32.6316C230.938 32.8014 230.813 32.9372 230.656 32.9372C230.531 32.9372 229.844 33.3447 229.188 33.854C228.281 34.5331 227.406 34.8387 225.688 35.0085C221.719 35.4499 218.906 37.4873 218.094 40.4414C217.938 41.0866 217.688 43.2258 217.5 45.2292C217.281 48.0136 217.031 49.27 216.406 50.5942L215.594 52.326L216.781 52.1223C222.5 51.1036 226.031 49.5076 228.094 46.9949C230.063 44.5501 230.469 41.1884 229.219 37.3854C228.844 36.163 228.844 35.9932 229.406 35.4499C229.719 35.1443 230.719 34.6689 231.594 34.4312L233.188 33.9898L235.75 36.4346C237.125 37.7589 238.688 39.219 239.156 39.6265L240.031 40.3735L239.406 41.7318L238.75 43.09L239.406 43.4975C239.781 43.7012 240.531 43.7691 241.063 43.6672C242.156 43.4295 242.375 43.6672 248.844 52.0543L250.625 54.3294V56.944C250.625 58.3701 250 65.7386 249.219 73.3107C247.125 94.0238 247.156 93.854 247.5 104.075C247.844 113.854 247.531 126.452 246.719 133.888C246.188 138.812 245.281 144.652 245.031 144.652C244.719 144.652 228.344 125.671 227.688 124.584C227.156 123.667 227.156 123.328 227.5 119.593C227.719 117.419 227.844 114.092 227.781 112.224C227.656 108.896 227.625 108.693 226.156 105.671C225.344 103.939 224.75 102.377 224.844 102.207C225.25 101.494 225.031 96.8421 224.5 95.2462C223.438 91.7827 221.969 90.5942 217.188 89.3039C213.875 88.4211 212.906 88.0475 211.719 87.0968C209.813 85.6027 209.906 85.399 210.063 90.3565C210.25 95.5518 210.906 98.2682 212.656 100.883C214.313 103.396 215.938 104.075 220.313 104.075L223.906 104.109L224.281 105.433C224.469 106.18 224.656 107.165 224.656 107.606C224.688 108.048 224.906 108.591 225.156 108.795C225.531 109.1 225.625 110.187 225.688 114.16C225.781 118.879 225.75 119.151 225.094 119.932C224.688 120.374 224.219 121.222 224.031 121.834C223.688 122.886 223.75 123.022 226.781 127.063C235.281 138.438 241.531 148.625 242.844 153.107C243.313 154.805 243.344 155.586 243.125 158.438C242.969 160.306 242.344 168.217 241.719 176.061C241.094 183.905 240.531 190.526 240.469 190.764C240.344 191.104 239.813 190.934 238.438 190.119C237.063 189.338 236.313 188.625 235.594 187.402C234.5 185.501 233.313 184.38 232.469 184.38C231.969 184.38 231.938 184.516 232.188 185.229C232.344 185.671 232.375 186.112 232.219 186.214C231.563 186.689 229.094 186.452 227.813 185.772C226.125 184.924 222.313 184.788 221 185.535C219.719 186.248 218.469 187.844 216.844 190.764C216 192.326 214.875 193.786 214.125 194.397C213.438 194.941 212.844 195.518 212.844 195.654C212.813 195.993 216.688 197.182 219.281 197.623C221.719 198.031 224.25 197.725 225.906 196.808C227.781 195.756 229.188 193.243 229.813 189.813C230.219 187.776 230.594 187.504 232.688 187.912C233.563 188.115 233.938 188.523 235.156 190.696C236.906 193.82 237.5 195.382 237.5 196.706C237.5 197.25 236.594 201.154 235.5 205.399C231.063 222.411 229.406 230.187 228.594 238.031C227.938 244.652 226.656 253.752 226.094 255.925C225.844 256.876 225.625 258.608 225.625 259.762C225.625 261.358 225.375 262.479 224.5 264.788C223.031 268.625 217.375 280.917 216.219 282.716C215.219 284.312 213.125 286.248 212.438 286.248C211.406 286.248 210.938 285.059 210.938 282.615V280.238L209.156 279.694C207.031 279.049 205.531 278.098 204.875 277.012C204.563 276.503 204.125 273.514 203.625 268.591C202.781 260.679 201.594 252.36 200.75 248.727C200.031 245.603 198.625 243.192 195.156 239.015C192.094 235.348 192 235.246 190.875 235.416C189.813 235.586 189.656 235.484 188.188 233.48C182.469 225.806 179.031 215.552 178.094 203.396C177.813 199.864 177.813 197.114 178.125 191.341C178.344 187.233 178.5 182.954 178.469 181.868C178.406 178.947 179.219 177.691 185.906 170.289C189.125 166.723 192.656 162.683 193.75 161.29C199.031 154.601 203.969 148.93 204.906 148.523C205.5 148.217 207.094 148.048 208.781 148.048C211.094 148.048 211.781 148.183 212.281 148.625C212.719 149.066 213.438 149.236 214.969 149.27C216.094 149.27 217.719 149.474 218.531 149.711C220.625 150.323 222.594 149.949 223.875 148.727C224.438 148.183 225.5 146.52 226.25 144.992C227 143.464 228 141.868 228.5 141.426C228.969 140.985 229.375 140.543 229.375 140.441C229.375 140.102 224.969 139.219 223.281 139.219C220.594 139.219 218.844 139.83 217.656 141.155C216.5 142.445 215.625 144.788 215.625 146.587C215.625 147.912 215.094 148.081 214.813 146.859C214.656 146.146 214.5 146.044 213.938 146.214C208.875 147.98 206.563 147.64 206.563 145.161C206.563 144.007 208 140.102 211.063 132.869C212.156 130.255 212.813 128.251 212.813 127.47C212.813 125.569 213.719 124.516 215.969 123.769C217.5 123.294 218.313 122.75 219.563 121.426C221.563 119.287 221.813 118.234 221.25 113.854C220.875 110.934 220.938 108.896 221.438 107.504C221.625 106.995 221.438 107.029 220.031 107.64C216.031 109.338 212.75 111.885 211.719 114.092C210.719 116.265 211.094 120.068 212.5 122.241C212.844 122.784 213.125 123.362 213.125 123.565C213.125 123.803 212.438 124.448 211.594 124.992C210.656 125.637 210.094 126.214 210.219 126.486C210.469 127.233 208.781 132.733 207.281 135.959C205.313 140.204 202.531 144.754 198.875 149.745C197.156 152.088 194.969 155.28 194.031 156.876C191.594 160.917 184.5 167.776 182.344 168.149C181.781 168.251 181.719 168.081 181.781 166.316C181.844 164.38 183.813 155.586 185.063 151.647C185.438 150.424 186.063 149.304 186.594 148.829C187.094 148.353 187.938 147.029 188.469 145.84C189.75 142.954 189.594 141.426 187.656 138.438C185.813 135.654 185.031 134.058 184.75 132.53L184.5 131.273L182.906 133.447C178.406 139.491 177.813 143.803 181 147.334C181.75 148.149 182.719 148.998 183.219 149.27C184.25 149.847 184.25 150.051 183.375 151.885C183 152.666 182.656 153.548 182.625 153.82C182.594 154.465 178.875 167.81 178.219 169.677C177.938 170.492 177.625 171.138 177.469 171.138C177.125 171.138 176.656 169.304 176.281 166.553C176.094 165.229 175.156 161.053 174.219 157.216C171.906 147.946 170.75 142.954 170.344 140.068C170.125 138.744 169.125 134.635 168.125 130.9C165.344 120.713 165.219 119.932 165.625 116.842C165.844 115.416 166.531 112.462 167.188 110.289C167.875 108.115 168.719 104.516 169.094 102.309C169.656 99.0492 170 97.8947 170.969 96.0951C171.844 94.4991 172.406 92.7674 173.063 89.7114C173.813 86.3498 174.156 85.3311 174.875 84.4822C175.906 83.3277 177.906 81.9695 179.094 81.6638C179.781 81.494 179.969 81.5959 180.313 82.4788C180.625 83.3277 180.625 83.9728 180.313 85.7386C179.5 90.4924 180.906 93.2088 185.125 94.9066C187.781 95.9593 189.875 97.2496 190.281 98.0645C190.875 99.219 191.094 97.9966 191.094 93.6163C191.094 89.3718 191.031 89.0323 190.219 87.1647C189 84.4822 187.406 83.4635 184.063 83.2598C181.344 83.09 181.25 82.9881 181.25 80.3735C181.25 79.6944 181.156 79.1172 181.063 79.1172C180.969 79.1172 180.438 79.4907 179.906 79.9321C178.75 80.8489 176.438 82.1732 175.938 82.1732C175.094 82.1732 177.5 76.7742 178.969 75.382C179.938 74.4312 180.219 74.3633 182.406 74.3633C185.156 74.3633 187.094 73.5484 188.125 71.9864C188.469 71.4431 189.125 69.4397 189.563 67.5382C190 65.6367 190.625 63.6333 190.969 63.1239C191.281 62.6146 191.563 62.1053 191.563 61.9355C191.563 61.4261 185.781 62.0713 183.906 62.8523C180.281 64.3124 178.625 67.5042 179.313 71.6469C179.656 73.5823 179.5 73.7861 177.406 74.1935C176.188 74.4652 176.031 74.6689 176.625 75.3141C177.031 75.7555 176.281 77.7929 174.313 81.494C173.688 82.7165 172.438 85.7725 171.563 88.2852C170.656 90.798 169.719 93.0051 169.469 93.1749C168.156 93.9898 167.906 94.601 167.75 97.8268C167.594 100.441 167.344 101.562 166.469 103.905C165.875 105.501 165.219 107.47 165 108.319C164.375 111.002 163.719 113.073 163.469 113.073C163.344 113.073 162.188 110.526 160.938 107.368C157.906 99.8981 156.313 96.4007 154.75 93.7521C153.531 91.7487 153.438 91.4092 153.438 89.27V86.961L151.844 85.7725C149.875 84.3463 147.938 81.9695 145.281 77.7589C144.156 75.9932 142.125 72.9711 140.75 71.0696C138.844 68.4211 138.031 66.893 137.094 64.3463C135.813 60.8489 134.813 56.9779 134.531 54.3973L134.344 52.8014L136.313 51.1036C138 49.6435 138.594 49.3379 140.438 48.9983C142.813 48.5569 145.781 47.0968 147.563 45.5009C148.188 44.9236 149.094 43.5993 149.594 42.5127C150.469 40.5772 150.469 40.5433 150.469 33.9559C150.469 27.8098 150.531 27.2326 151.188 25.6706C151.563 24.7538 151.844 23.9389 151.781 23.9049C151.719 23.837 150.375 24.1766 148.781 24.618C142.344 26.5195 136.938 30.2207 135.063 34.0917C133.563 37.1817 134.031 43.2258 136 46.7912L136.625 47.9117L135.906 48.7946C135.094 49.7114 133.438 50.6961 132.125 51.0696C131.375 51.2394 131.313 51.3752 131.563 52.0543C131.875 52.9711 132.531 59.4907 132.313 59.7284C132.031 60.0679 127.344 58.8116 124.844 57.7589C122.813 56.91 121.938 56.2649 120.188 54.4312C118.031 52.2241 118 52.1223 117.875 50.1868C117.781 48.7267 117.906 47.8098 118.375 46.5874C119.219 44.4482 119.531 41.2903 119.063 39.4567C118.563 37.3854 117 35.6537 113.375 33.2767C111.156 31.7827 109.969 30.73 109.281 29.6435L108.281 28.1154L107.906 29.1681C107.688 29.7114 107.219 31.4431 106.844 32.9711C106.031 36.3328 106.094 41.9015 106.938 43.6333C108.25 46.2479 111.469 48.455 114.531 48.7946C116 48.9644 116.219 49.0662 116.344 49.8812C116.438 50.3565 116.375 51.4431 116.25 52.292C116.094 53.1409 115.969 53.9219 115.938 54.0238C115.938 54.1256 116.281 54.1596 116.656 54.0917C117.188 53.9898 118.531 54.7368 121.563 56.8761C126.875 60.6452 130.813 63.0221 132.125 63.3277C133.469 63.6333 134.844 65.6706 136.406 69.7453C137.875 73.5144 138.75 75.2462 140.719 77.9966C141.531 79.1851 142.125 80.1358 142.031 80.1358C141.656 80.1358 139.188 78.6757 138.188 77.8608C137.656 77.4193 136.969 76.6044 136.719 76.0951C136.469 75.5178 135.938 75.0424 135.469 74.9745C134.594 74.7708 134.469 75.1783 135.063 76.5705C135.375 77.3175 135.344 77.5212 134.969 77.7929C134.438 78.1664 131.906 77.8608 130.188 77.2156C129.344 76.8761 128.844 76.8421 128.625 77.0798C128.469 77.2496 127.969 77.4193 127.563 77.4193C127.156 77.4193 126.125 77.9626 125.313 78.6078C124.344 79.3888 123.469 79.7963 122.781 79.7963C121.344 79.8302 119.594 80.5433 118.281 81.6299C116.344 83.2258 116.125 83.9049 115.906 88.5908C115.781 91.3752 115.531 93.3447 115.188 94.1935C114.906 94.9406 114.719 95.5518 114.75 95.6197C114.969 95.7895 119.625 94.3294 121.125 93.5823C123.344 92.4618 125.469 90.2886 126.125 88.4211C126.719 86.7233 126.563 84.0747 125.75 81.8336C125.156 80.2037 125.406 79.6944 127.125 79.0832C128.469 78.6078 132.969 78.8795 135.875 79.6265C137.969 80.1698 145.969 84.0407 147.594 85.2971C150 87.1647 153.719 99.0832 160 125.093C162.938 137.284 164.125 142.615 163.844 142.615C163.438 142.615 152.375 136.978 150.438 135.789C148.344 134.499 148.156 134.261 146.375 130.968C145.375 129.1 143.75 126.621 142.813 125.501C141.063 123.43 141.094 123.464 133.875 119.864C131.875 118.845 131.781 118.744 132.469 118.472C132.906 118.302 134.031 118.234 134.969 118.37C138 118.744 140.719 117.521 141.75 115.382C142.031 114.805 142.563 113.141 142.969 111.681C143.344 110.187 144.031 108.455 144.5 107.844C144.938 107.199 145.313 106.553 145.313 106.418C145.313 106.282 143.813 106.282 141.969 106.384C137.781 106.587 135.531 107.436 133.969 109.338C132.813 110.696 132.563 111.647 132.406 115.45L132.344 117.317L131.094 117.589C130.406 117.759 129.531 117.963 129.156 118.031C128.063 118.268 128.281 118.642 129.781 119.117C132.438 120.034 138.75 123.667 140.094 125.093C141.438 126.52 145.313 132.53 145.313 133.175C145.313 133.65 144.281 133.447 137.844 131.783C130.813 129.949 126.906 128.557 125.563 127.334C124.813 126.655 123.75 124.822 122.219 121.596C121 118.981 119.5 116.231 118.906 115.45C118.313 114.669 117.813 113.922 117.813 113.752C117.813 113.209 118.656 112.801 120.406 112.598C123.594 112.224 126.063 110.696 127.031 108.489C127.375 107.674 127.656 105.84 127.781 103.43C127.969 100.611 128.219 99.2869 128.719 98.2003L129.406 96.7402L128.688 96.91C128.281 97.0119 127.25 97.2496 126.375 97.4193C122.375 98.2682 118.906 100.374 117.656 102.683C117.031 103.871 116.875 104.584 116.875 106.486C116.906 107.776 117.094 109.44 117.344 110.187C117.938 111.986 117.969 111.952 116.844 112.598C116.094 113.005 115.438 113.073 113.938 112.903C112.25 112.699 111.844 112.462 110.594 111.205C108.969 109.542 106.875 108.319 104.406 107.504C100.5 106.248 97.875 107.131 93.9063 110.968C89.2188 115.518 88.0625 116.435 86 117.182L84.0313 117.895L85.0625 118.744C87.3125 120.577 91.875 123.294 94.375 124.346C96.7188 125.297 97.4063 125.433 100.313 125.433C104.25 125.467 105.438 124.924 108.156 121.868C109.719 120.102 111.875 116.197 111.875 115.11C111.875 114.058 116.344 115.552 117.531 117.012C118.344 117.997 121 123.939 121.406 125.637C121.688 126.825 122.031 127.368 123 128.081C125.594 129.983 138 134.669 142.969 135.654C147.438 136.536 147.594 136.604 148.313 137.861C149.469 139.864 150.531 140.781 152.563 141.596C155.563 142.784 158.094 144.312 158.781 145.399C159.125 145.908 160.375 146.961 161.563 147.708C165.531 150.221 166.313 152.292 165.656 158.54L165.25 162.173L166.219 164.278C167.875 167.878 168.125 169.711 168.438 180.645C168.906 197.114 169.938 215.789 170.656 220.204C171.094 223.124 171.781 225.331 172.969 227.674C174.313 230.39 174.531 231.443 173.906 232.462C173.281 233.514 172.938 233.48 170.5 232.122C169.406 231.477 167.875 230.73 167.125 230.424C166.375 230.119 164.875 228.998 163.75 227.98C160.5 224.958 160.563 224.992 159.281 225.806C158.375 226.384 157.875 226.486 156.656 226.316C154.938 226.044 150.938 224.992 145.156 223.26C142.938 222.615 139.844 221.902 138.281 221.732C136.531 221.494 135.188 221.154 134.688 220.781C133.438 219.83 131.781 215.722 129.094 206.961C126.063 197.046 125.5 194.737 124.844 189.576C124.563 187.368 124.281 185.535 124.219 185.433C123.906 185.127 125.094 183.328 125.938 182.852C127.25 182.105 128.938 180.204 129.688 178.608C130.688 176.503 130.5 174.533 129.031 170.968C128.25 169.066 127.688 167.165 127.594 165.976L127.406 164.007L126.125 165.127C123.781 167.131 121.313 170.085 120.5 171.885C118.906 175.348 119.719 179.151 122.656 181.935L123.781 183.022L122.813 184.55C122.281 185.365 121.719 186.146 121.531 186.282C121.344 186.418 121.438 186.689 121.844 186.995C122.344 187.368 122.5 187.844 122.5 189.066C122.5 189.949 122.781 192.462 123.156 194.669C123.531 196.876 123.75 198.778 123.656 198.846C123.406 199.117 121.156 197.997 120.375 197.182C119.969 196.774 119.344 195.857 119.031 195.178C118.688 194.465 117.688 193.277 116.75 192.53C115.375 191.409 114.969 190.798 114.438 189.202C113.563 186.655 111.031 183.531 108.906 182.479C106.844 181.426 105.469 181.46 101.063 182.716C98 183.565 96.9063 183.735 94.9375 183.633C93.5938 183.531 92.5 183.565 92.5 183.633C92.5 183.735 93.125 185.059 93.9063 186.553C96.6875 191.919 100.094 195.688 103.25 196.808C106.125 197.861 110.281 196.74 112.969 194.16L114.406 192.767L115.563 193.786C116.25 194.397 116.875 195.348 117.125 196.129C117.438 197.216 117.844 197.691 119.313 198.608C122.188 200.475 125.688 204.584 127.188 207.946C129.25 212.394 129.625 217.284 128.125 219.932C127.094 221.8 126.25 222.173 122.094 222.479C117.969 222.784 117.406 222.92 114.5 224.244C111.906 225.433 107.906 225.874 100.938 225.739L95.1563 225.637L94.7813 222.479C94.5938 220.713 94.3438 218.981 94.25 218.574C94.1563 218.098 94.4063 217.487 95.1875 216.536C97.8125 213.379 97.7813 211.681 94.9688 207.64C94.3438 206.723 93.6875 205.535 93.5938 204.992C93.4688 204.482 93.25 204.007 93.125 203.905C92.7813 203.667 90.5625 206.35 89.5938 208.183C89.125 209.032 88.6563 210.424 88.5625 211.307C88.375 212.598 88.5 213.107 89.1563 214.329C89.5938 215.144 90.5 216.163 91.2188 216.638C92.5938 217.555 92.7188 218.031 92.0625 219.389C91.8438 219.898 91.7188 220.747 91.7813 221.256C91.9063 222.105 91.375 221.596 88.2188 218.132C86.1875 215.857 84 213.752 83.4375 213.413C82.7188 213.005 80.875 212.632 78.0625 212.36C73.1563 211.851 73.0938 211.817 67.0625 207.674L63 204.924L59.7188 204.754L56.4063 204.584L51.0938 201.222C48.1875 199.355 45.4063 197.623 44.9375 197.317C44.4375 197.012 44.0625 196.706 44.0938 196.604C44.0938 196.503 45.1875 195.891 46.4688 195.178C48.5 194.126 49 193.99 49.6563 194.295C50.0938 194.499 51.75 194.669 53.2813 194.669C58.6563 194.669 63.7813 192.36 65.9063 189.032C67.25 186.859 67.9688 184.72 68.9063 179.932C70.2188 173.107 71.25 170.221 73.3438 167.742L74.4375 166.384H70.4688C58.9063 166.384 50.4063 170.017 47.5 176.231C46 179.389 45.4688 186.044 46.4063 189.813C46.6563 190.832 46.875 191.783 46.875 191.885C46.875 192.224 43.4063 193.82 42.0938 194.058C41.25 194.228 40.7188 194.16 40.1563 193.752C39.75 193.447 39.3125 193.209 39.2188 193.209C38.9063 193.209 39.0625 194.669 39.5938 196.333L40.1563 197.997L43.9063 199.966C47.6875 201.935 49.8438 203.531 49.5 204.109C49.2188 204.652 44.75 204.448 37.4688 203.531L30.375 202.649L27.6563 201.188C25.3438 199.932 24.75 199.423 23.8438 197.963C22.5 195.756 19.5 193.379 17.2188 192.632C15.625 192.122 15.3125 192.122 13.5938 192.632C12.5313 192.903 10.1563 194.058 8.3125 195.212C5.15625 197.114 2.90625 197.963 1.09375 197.963C0.65625 197.963 0.3125 198.098 0.3125 198.234C0.3125 198.404 1.53125 199.864 3.0625 201.528C8.78125 207.844 14.0313 210.153 18.0938 208.149C20.1875 207.097 22.3438 205.229 23.5938 203.396L24.7188 201.698L25.875 202.241C26.5 202.513 27.5625 203.328 28.25 204.007C29.0313 204.822 29.5 205.127 29.5938 204.822C29.6875 204.618 30.25 204.414 30.8438 204.414H31.9375L31.75 205.942C31.5938 206.859 31.6563 207.47 31.8438 207.47C32.5625 207.47 33.1875 206.995 33.4688 206.214C33.6875 205.535 33.9063 205.399 34.4688 205.569C34.8438 205.671 36.3438 206.01 37.8125 206.316C39.2813 206.621 40.5938 206.995 40.7188 207.131C41.0625 207.436 34.8438 211.885 34.0625 211.885C33.1875 211.885 32 213.311 30.9063 215.688C30.125 217.351 29.75 217.759 28.125 218.71C25.9375 219.966 23.4688 222.716 22.25 225.263C21.5625 226.689 21.4063 227.436 21.4375 229.542C21.4375 231.885 21.5938 232.462 23.1875 236.503C25.3125 241.834 25.75 243.565 25.5625 246.01C25.4688 247.267 25.5313 247.776 25.75 247.64C27.4375 246.587 31.0313 243.226 33.2188 240.747C36.875 236.604 38.25 233.582 38.2813 229.915C38.2813 227.776 38.125 226.995 37.4063 225.399C36.2813 222.92 34.5313 220.374 33.0625 219.083L31.9063 218.098L32.8125 216.401C33.3125 215.45 34.1875 214.329 34.75 213.888C35.2813 213.447 36.375 212.462 37.1563 211.647C39.125 209.643 40.6563 208.93 43.5938 208.659C44.9688 208.557 47.1875 208.149 48.5 207.776C51.375 206.995 52.75 206.961 55.0313 207.606C57.8438 208.421 60 209.406 62.875 211.205C66 213.141 68.375 213.888 75.1563 215.144C77.75 215.62 80.4375 216.299 81.1875 216.672C82.8125 217.521 84 219.083 86.6875 223.939C87.8438 225.976 89.1563 228.081 89.5938 228.591C91.0938 230.289 91.8438 230.39 102.281 230.357C107.594 230.323 111.813 230.39 111.656 230.56C110.969 231.205 96.2188 237.284 94.8438 237.487C94 237.589 92.4375 237.759 91.4375 237.861C90.4063 237.963 89.4375 238.166 89.25 238.268C89.0938 238.404 87.4375 238.506 85.5938 238.506C82.6875 238.54 82.125 238.642 81.3438 239.253C80.0625 240.306 79.2188 241.8 78.3125 244.686C77.875 246.112 77.1563 247.776 76.7188 248.387L75.9375 249.542L77.6875 249.779C81.0313 250.221 85.0625 249.27 86.6563 247.708C87.9688 246.35 88.5 244.89 88.7188 242.105L88.9063 239.559L89.8438 239.626C90.375 239.694 92.125 239.593 93.75 239.389C95.375 239.219 96.75 239.151 96.8125 239.219C96.875 239.287 96.5625 239.932 96.125 240.645C95.1563 242.173 95.1563 242.173 95.9063 243.192C96.25 243.599 96.9375 244.516 97.4375 245.161C98.0938 246.01 98.4063 246.859 98.5313 248.115C98.7813 250.357 99.625 252.462 100.906 254.092C102.313 255.789 104.219 256.367 108.5 256.367C110.875 256.367 112.219 256.536 113.125 256.91C113.844 257.216 114.469 257.385 114.563 257.317C114.781 257.046 113.188 251.409 112.438 249.813C111.281 247.301 109.875 245.467 108.438 244.55C107.25 243.769 106.688 243.633 104.844 243.667C103.469 243.701 102.031 243.973 100.969 244.414C99.0625 245.229 98.75 245.093 97.9375 243.362C97.2813 242.037 97.5313 241.154 98.9688 239.66C99.9375 238.608 101.281 237.963 106.5 235.823C117.094 231.545 117.844 231.375 129.375 230.832C134.781 230.594 141.094 230.39 143.406 230.39C147.438 230.39 147.594 230.424 148.188 231.239C148.594 231.783 148.75 232.36 148.625 233.005C148.469 233.82 148.625 234.024 150.156 234.907L151.844 235.925L152.031 234.941C152.438 232.937 153.938 232.801 157.75 234.431C165.344 237.623 172.969 242.343 176.406 246.01C178.781 248.523 184.531 256.638 186.156 259.796C186.906 261.222 187.125 262.037 187.125 263.565C187.125 264.652 187.219 265.671 187.344 265.874C187.656 266.418 187.531 279.083 187.188 281.324C187.031 282.411 186.688 283.633 186.406 284.075C186 284.754 185.813 284.856 185.281 284.516C184.938 284.312 184.563 284.211 184.5 284.278C184.438 284.38 185.5 288.014 186.906 292.394C189.656 301.087 190.938 306.418 191.719 312.36C192.406 317.385 193.313 320.815 195.844 327.504C199.656 337.691 199.844 338.913 199.594 351.613C199.406 360.815 199.063 364.652 198.281 365.942C197.656 366.927 197.219 366.927 195.813 365.874C194.719 365.059 194.594 365.059 193.75 365.535C193.219 365.84 192.813 366.248 192.813 366.486C192.813 366.689 193.656 368.115 194.688 369.61C195.719 371.104 196.719 372.937 196.906 373.65C197.469 375.891 197.813 382.445 197.813 391.409V400H214.063H230.344L230.188 398.879C230.094 398.302 229.938 395.722 229.844 393.209C229.594 387.334 228.844 377.114 228.406 373.888C228.125 371.749 226.625 366.757 225.594 364.482C225.375 364.007 225.406 362.479 225.75 359.389C226.281 354.261 226.156 352.598 224.531 344.992C223.938 342.275 223.313 338.778 223.094 337.182C222.625 333.345 222.594 320.34 223.094 317.385C224.031 311.511 231.281 294.975 237.125 285.433C240.563 279.762 243.219 276.876 247.813 273.786C249.781 272.428 252.969 270.153 254.844 268.659C258.531 265.806 258.031 266.418 265.531 255.518C269.813 249.27 273.688 244.516 276.219 242.343C278.438 240.407 283.563 237.691 284.906 237.691C285.438 237.691 286.031 237.929 286.25 238.234C287.031 239.219 288 239.525 290.469 239.559C292.938 239.559 293 239.593 294.906 241.154C297 242.852 298.313 243.43 301.656 244.278C304.063 244.89 305.031 245.603 312.063 252.156C314.469 254.397 317.156 256.774 318 257.385C318.844 258.031 320.375 259.389 321.406 260.441C322.438 261.494 324.094 263.056 325.094 263.973C327.406 266.078 328.75 268.523 328.75 270.696C328.75 271.579 328.969 273.039 329.25 273.922C330.281 277.284 332.156 278.846 335.625 279.287C338.813 279.694 340.781 280.204 341.844 280.917L342.906 281.63L342.688 279.321C342.25 274.465 340.375 270.017 338.031 268.115C337.281 267.504 336.688 267.402 334.438 267.402C332.938 267.402 331.219 267.538 330.594 267.674C329.063 268.081 328.688 267.165 330 266.316C330.531 266.01 330.938 265.637 330.938 265.535C330.938 265.433 330 264.992 328.844 264.55C324.5 262.886 322.313 261.053 322.719 259.389C322.938 258.506 325.5 256.265 329.125 253.786C330.719 252.699 332.813 251.138 333.75 250.323L335.469 248.795L338.438 249.032C341.594 249.27 342.5 249.745 342.5 251.104C342.5 252.699 343.438 255.212 344.438 256.265C345.688 257.555 346.094 257.691 349.75 258.065C351.344 258.234 352.969 258.472 353.375 258.574C354.281 258.879 354.281 258.098 353.406 255.246C351.656 249.508 348.781 247.538 344.563 249.1C342.844 249.745 342.375 249.44 342.625 247.776C342.75 247.199 342.656 246.859 342.406 246.825C340.25 246.689 339.563 246.078 339.844 244.516C340.313 241.732 341 241.29 345.781 240.611C351.625 239.762 353.063 239.423 356.5 238.166C359.719 237.012 361.844 235.959 363.594 234.635C364.406 234.058 364.844 233.99 366.719 234.16C371.844 234.635 378.313 231.885 380.813 228.217C382.313 225.976 383.063 223.294 383.75 217.317C384.531 210.798 385.25 208.149 386.875 205.705L388.125 203.769L386.344 203.939C376.188 204.89 369.344 207.368 365.219 211.545C362.781 214.024 361.688 216.435 361.25 220.34C360.844 223.667 361.25 227.844 362.188 230.119C362.625 231.171 362.719 231.817 362.5 232.088C361.75 233.073 358.844 234.431 357.063 234.601C355.438 234.771 355.156 234.907 355.156 235.484C355.156 236.095 354.875 236.197 351.719 236.367C348.656 236.57 347.781 236.774 343.813 238.302C339.406 240 339.25 240.102 334.594 243.905C326.281 250.73 321.938 253.65 320.188 253.65C319.031 253.65 318.031 252.801 312.5 247.368C303.531 238.54 301.875 237.487 294.063 235.823C290.156 234.975 288.875 233.922 289.688 232.258C290.094 231.443 295.281 228.659 299.531 226.995C305.125 224.788 312.25 222.716 317.438 221.766L322.531 220.849L324.313 218.438C325.313 217.114 327.25 214.839 328.594 213.379C329.969 211.885 332.5 209.066 334.219 207.097C337.75 203.022 341.219 199.932 344.313 198.098C345.469 197.385 347.438 196.061 348.719 195.144C350 194.194 351.625 193.311 352.313 193.141C353.031 192.971 354.344 192.53 355.219 192.156C356.594 191.545 357.031 191.511 357.844 191.817C359.281 192.36 363.375 192.292 365.219 191.681C368.938 190.492 370.344 188.557 372.281 181.969C373.469 177.963 374 176.74 375.125 175.178L376.5 173.243L375.094 173.039C372.719 172.699 368.125 172.835 365.563 173.311C360.781 174.261 357.5 176.706 356.188 180.306C355.656 181.8 355.5 182.988 355.438 186.078L355.375 189.983L354.375 190.424C353.438 190.832 353.406 190.832 353.594 190.119C353.781 189.576 353.719 189.406 353.406 189.542C350.688 190.73 350.031 191.07 349.344 191.851C348.656 192.564 346.813 193.82 342.094 196.672C341.594 197.012 341.031 197.182 340.875 197.08C340.406 196.774 340.594 194.907 341.438 191.579C342.219 188.489 342.313 188.285 344.031 186.553C346.031 184.55 347.625 181.46 347.969 178.947C348.219 177.148 347.563 174.737 346.281 172.666C345.813 171.919 344.625 170.051 343.656 168.523C342.375 166.452 341.813 165.195 341.5 163.667L341.125 161.63L340.219 162.581C338.594 164.244 335.563 168.896 334.5 171.307C332.688 175.416 332.5 178.574 333.844 181.494C334.688 183.328 337.531 186.52 339.188 187.47C340.531 188.217 340.531 188.251 340.25 189.44C339.906 190.73 338.969 192.428 338.188 193.107C337.781 193.48 337.844 193.582 338.5 193.854C339.25 194.16 339.281 194.261 339.031 195.823C338.875 196.706 338.688 197.929 338.594 198.506C338.438 199.423 337.906 199.966 334.594 202.309C331.281 204.652 330.313 205.603 327.156 209.372C325.156 211.783 323.125 214.261 322.656 214.839C321.688 216.163 321.281 216.299 311.719 218.676C307.938 219.626 301.656 221.256 297.75 222.275L290.625 224.177L285.719 227.504C283 229.338 277.688 233.039 273.906 235.722L267.031 240.611L263.5 245.195C258.219 251.952 253.156 257.691 249.594 260.917C246.688 263.565 239.188 268.829 238.844 268.489C238.531 268.115 240.719 263.633 242.125 261.868C245.031 258.132 245.344 257.589 244.875 256.876C244.469 256.265 244.406 256.299 243.25 257.317C241.688 258.71 241.063 258.71 240.813 257.317C240.438 255.28 241.719 242.241 242.563 239.389C242.75 238.744 243.406 237.555 244 236.74C244.594 235.959 245.031 235.246 244.969 235.212C244.906 235.144 244.438 234.907 243.938 234.703L243.031 234.261L243.25 231.477C243.344 229.949 243.594 226.621 243.75 224.109C244.25 216.333 245.188 212.394 247.469 208.625C249.063 205.976 249.469 205.569 256.656 200.204C270.156 190.085 275.5 186.893 282.656 184.72C286.219 183.633 295.125 182.275 298.594 182.309H301.688L306.563 179.491C311.188 176.774 318.031 173.175 323.125 170.798C324.406 170.187 328.813 167.946 332.906 165.772C340.281 161.868 340.313 161.834 340.625 160.543C340.875 159.525 340.844 159.049 340.469 158.268C338.844 154.805 341.094 151.409 348.906 145.671C351.594 143.667 354.25 141.392 355.781 139.728C362.875 131.952 364.656 129.813 365.563 127.81C366.625 125.535 367.875 124.211 370.938 122.071C374.594 119.525 377.563 117.929 377.75 118.472C377.813 118.71 378.469 119.694 379.219 120.679C380.188 122.003 380.563 122.852 380.719 124.109C381.156 127.572 383.406 131.307 385.781 132.462C386.813 132.971 387.875 133.107 391.938 133.107C396 133.107 397.125 133.209 398.438 133.752L400 134.397L399.781 133.514C399.25 131.104 398 127.301 397.094 125.467C395.688 122.547 392.75 119.423 390.844 118.845C388.75 118.234 385.625 118.642 383.219 119.864L381.281 120.849L380.313 119.423C379.219 117.827 379.125 116.944 379.969 116.638C380.313 116.536 380.719 116.231 380.938 115.959C381.594 115.11 378.563 116.231 374.25 118.472C372.063 119.593 370.094 120.543 369.906 120.543C369.469 120.543 369.844 114.126 370.469 111.579C371.344 107.912 372 106.757 375.063 103.599C379.875 98.6078 379.844 98.6418 381.906 98.7436C383.188 98.7776 384.219 99.1172 385.469 99.8302C388.563 101.596 390.063 101.087 391.875 97.6231C392.406 96.6044 393.25 95.416 393.75 94.9406L394.656 94.1256L393.906 93.5823C392.063 92.2581 389.375 91.4771 387.281 91.6469C386.25 91.7148 384.781 93.2428 384.344 94.6689C383.906 96.2309 383.813 96.2988 382.594 96.6044C381.719 96.7742 381.594 96.7063 381.5 96.0272C381.438 95.5858 381.688 94.7708 382.094 94.1256C384.188 91.0017 384.25 89.1341 382.313 86.0102C380.469 83.056 380 82.0374 380 81.1545C380 80.034 379.406 80.4754 377.781 82.7504C375.969 85.3311 374.875 88.2852 375.094 90.0849C375.313 91.7827 376.563 93.7182 378.125 94.7368C378.813 95.2122 379.375 95.7216 379.375 95.8574C379.406 96.9779 376.656 100.475 374.563 102.003C370.719 104.754 367.188 113.243 367.188 119.66V121.324L362.469 126.35L357.719 131.375L357.906 129.44C358 128.387 358.25 123.973 358.469 119.694L358.844 111.885L358.031 110.526C357.281 109.27 357.219 109.032 357.531 107.81C358.031 105.908 357.719 101.29 356.969 99.4567C355.75 96.5026 353.719 95.0085 349.031 93.7182C345.813 92.8353 343.313 91.511 342.313 90.2207C341.25 88.8625 341.156 89.4058 341.313 95.3481C341.5 100.985 342.094 103.633 343.781 106.384C345.625 109.44 350.094 111.205 354.094 110.492L355.938 110.153L356.375 111.511C357.594 115.212 357.625 123.531 356.469 128.353C354.938 134.805 354.75 135.11 349.688 140C340.375 148.998 335.719 154.058 334.344 156.57C332.969 159.185 331.188 160.815 328.594 161.935C327.75 162.309 321.625 164.958 315.031 167.878C308.406 170.798 302.969 173.107 302.875 173.039C302.688 172.835 303.656 170.9 306.094 166.723C307.344 164.584 308.719 162.003 309.188 161.019C309.625 160.068 310.219 159.253 310.438 159.253C311.188 159.253 312.094 157.691 312.656 155.45C313.094 153.684 313.375 153.175 314.375 152.394C316.75 150.594 318.75 146.384 318.75 143.158C318.75 141.053 317.875 139.015 315.5 135.484C313.531 132.598 312.625 130.56 312.344 128.591C312.125 126.995 312.094 126.961 311.469 127.572C310.281 128.727 307.219 133.107 306.125 135.246C303.938 139.525 303.406 143.464 304.625 146.418C305.406 148.387 308.094 151.477 309.813 152.496C311.375 153.379 311.531 153.82 310.781 155.722L310.344 156.91L309.188 156.367C308.125 155.891 308.063 155.891 308.281 156.469C309.156 158.913 308.625 160.679 305.656 164.958C303.594 167.912 298.5 173.752 297.188 174.635C296.75 174.941 295.344 175.416 294.063 175.722C291.094 176.401 282.188 177.793 278.844 178.098C276.5 178.302 276.281 178.268 275.969 177.657C275.781 177.25 275.625 176.638 275.625 176.265C275.625 175.382 275.438 175.382 273.969 176.333C273 176.944 272.656 177.453 272.188 178.879C271.875 179.898 271.438 180.917 271.219 181.154C270.969 181.426 269.094 182.411 267.031 183.396C261.5 185.976 257.031 188.489 254.094 190.628C252.656 191.681 251.438 192.53 251.406 192.53C251.375 192.53 251.25 190.085 251.156 187.131C250.969 182.886 251.031 181.222 251.406 179.491C252.156 176.027 254.063 169.066 254.563 168.048C254.813 167.504 256.438 165.908 258.219 164.482C261.844 161.494 264.219 159.151 264.844 157.861C265.125 157.284 265.25 156.061 265.219 154.397C265.188 153.005 265.25 151.715 265.406 151.579C265.813 151.138 267.469 153.582 267.5 154.669C267.531 156.061 268.75 159.219 269.875 160.713C271.438 162.852 272.344 163.158 277.656 163.192C281.281 163.192 282.625 163.328 283.563 163.769C284.219 164.075 284.813 164.346 284.844 164.346C285.188 164.346 283.781 159.898 282.594 157.25C280.906 153.413 278.875 151.002 276.844 150.424C274.938 149.847 271.906 150.221 269.938 151.239L268.281 152.088L267.438 151.205C266.438 150.153 266.344 149.542 267.094 148.659C267.625 148.014 267.594 148.014 266.406 148.115C265.219 148.217 265.156 148.285 264.938 149.643C264.813 150.424 264.469 151.545 264.188 152.19C263.875 152.801 263.531 154.16 263.438 155.178L263.281 157.012L257.688 161.188C254.625 163.497 252.031 165.297 251.969 165.229C251.875 165.161 252 164.516 252.188 163.769C252.563 162.445 252.594 160.917 253.125 134.295C253.594 111.783 254.188 99.3888 255.031 96.0272C255.438 94.2954 256.656 92.8353 258.5 91.8167C259.375 91.3412 261.313 89.6435 262.844 88.0475C265.281 85.4669 265.688 85.1953 266.031 85.6706C266.531 86.3837 267.688 86.8251 270.219 87.2665C272 87.5721 272.5 87.8438 273.688 88.9983C276.469 91.8167 281.156 93.4805 284.188 92.7335C286.406 92.1902 287.969 91.0696 291.781 87.1647C294.719 84.1766 297.563 82.1732 298.844 82.1732C300.313 82.1732 299.094 81.0187 294.75 78.2682C291 75.8914 286.688 74.3633 283.719 74.3633C282.375 74.3633 280.75 74.601 279.906 74.9066C277.188 75.8914 273.375 80.5433 272.438 83.9728L272.063 85.2971L270.625 85.1273C268.594 84.8557 266.781 83.9049 267.219 83.2937C267.5 82.9542 267.375 82.8523 266.531 82.8523C265.656 82.8863 264.844 83.4635 261.719 86.4516L257.969 90.017L256.406 89.8132C254.656 89.5756 254.563 89.4737 253.875 87.0968C253.094 84.3803 252.969 80.3396 253.563 77.7589C254.219 75.0085 254.938 73.6163 258.281 68.6588C259.781 66.4856 262.281 62.0713 263.875 58.9134C267.063 52.5637 267.531 52.0204 270.563 51.1036C273.594 50.2207 274.156 49.7793 275.344 47.674C275.969 46.5535 277.063 44.6519 277.781 43.3616C278.5 42.1053 279.344 40.3735 279.625 39.5246L280.188 37.9966L280.781 39.2869C281.188 40.2037 281.375 41.3922 281.406 43.4635C281.406 45.9083 281.563 46.6893 282.313 48.3192C283.406 50.764 284.75 51.6808 288.75 52.6316C290.656 53.073 292.281 53.6842 293.25 54.3633L294.781 55.382L294.594 51.7148C294.375 46.893 293.438 43.9049 291.469 41.8676C289.719 40.0679 288.125 39.5925 284.906 39.8642L282.469 40.034L282 38.8795C281.75 38.2343 281.563 37.2496 281.563 36.7063C281.563 36.163 281.375 35.6197 281.188 35.5518C280.938 35.4499 281 35.3481 281.344 35.3481C281.938 35.3141 283.125 33.4465 283.125 32.4958C283.125 32.1902 283.906 31.0017 284.844 29.8812C286.094 28.4211 286.656 27.3684 287.031 26.0102C287.656 23.7012 287.344 22.343 285.594 19.6604C284.031 17.3514 282.813 14.6689 282.813 13.5823C282.781 12.8014 282.656 12.8693 281.313 14.4991C279.313 16.8761 277.594 20.1019 277.188 22.2751C276.656 24.9915 277.188 26.5874 279.344 28.8625C280.313 29.8812 281.375 30.8998 281.719 31.1036C282.281 31.4431 282.219 31.6808 280.188 36.197C277.594 41.9695 275.219 46.2818 274.188 47.1647C273.75 47.5382 272.094 48.1833 270.5 48.5569C267.688 49.27 267.563 49.3379 267.063 50.5263C266.125 52.6995 260.594 61.4261 259.469 62.4788C258.219 63.7012 257.813 63.7351 256.938 62.7165C256.125 61.7657 255.75 60.747 255.469 58.5399C255.281 56.91 255.344 56.6384 256.219 55.3481C256.75 54.5331 257.188 53.6842 257.188 53.4126C257.188 53.1409 256.469 52.1902 255.563 51.3073L253.969 49.7114L254.781 46.4856C255.813 42.5467 255.813 41.7318 254.844 38.2343C254.438 36.7402 253.438 32.326 252.656 28.489C251.156 20.9847 251.156 20.9508 252.531 17.8947C253.031 16.7742 253.156 16.129 252.969 15.8234C252.781 15.5518 252.25 14.7708 251.719 14.0917C250.969 13.0391 250.75 12.3599 250.594 10.3565C250.375 7.84381 249.344 5.12735 248.219 4.00681C247.125 2.9202 245.281 2.34296 242.031 2.03735C239.563 1.79965 238.406 1.52802 237.219 0.882843L235.656 0L235.813 1.29031Z"
                            fill="#1E3C32" />
                        <path
                            d="M266.75 124.924C263.125 129.576 261.781 133.65 262.938 136.672C263.531 138.2 265.719 140.747 266.906 141.256C267.656 141.596 267.781 141.834 267.625 142.411C267.313 143.565 266.594 144.924 266.188 145.195C265.625 145.569 266.938 145.976 267.563 145.637C267.875 145.467 268.313 144.55 268.563 143.633C268.875 142.547 269.375 141.596 270 141.053C271.094 140.034 272.406 137.725 272.844 136.027C273.281 134.261 272.719 132.428 270.812 129.406C269.937 127.98 269 126.282 268.781 125.637C268.563 124.992 268.281 124.211 268.188 123.905C268 123.463 267.719 123.701 266.75 124.924Z"
                            fill="#1E3C32" />
                    </g>
                    <defs>
                        <clipPath id="clip0">
                            <rect width="400" height="400" fill="white" />
                        </clipPath>
                    </defs>
                </svg>